<svg xmlns="http://www.w3.org/2000/svg" width="1920" height="162.667" viewBox="0 0 508 43.039" xmlns:v="https://vecta.io/nano"><path d="M0 21.519c0-1.412.138-2.813.413-4.199a21.41 21.41 0 0 1 1.225-4.036 21.44 21.44 0 0 1 4.665-6.981 21.44 21.44 0 0 1 6.981-4.665A21.41 21.41 0 0 1 17.32.413 21.45 21.45 0 0 1 21.519 0H486.48c1.412 0 2.813.138 4.199.413a21.41 21.41 0 0 1 4.036 1.225 21.44 21.44 0 0 1 6.981 4.665 21.53 21.53 0 0 1 2.676 3.26 21.44 21.44 0 0 1 1.988 3.721 21.41 21.41 0 0 1 1.225 4.036 21.45 21.45 0 0 1 .413 4.199c0 1.413-.138 2.813-.413 4.199a21.41 21.41 0 0 1-1.225 4.036 21.44 21.44 0 0 1-1.988 3.721 21.53 21.53 0 0 1-2.676 3.26 21.44 21.44 0 0 1-6.981 4.665 21.41 21.41 0 0 1-4.036 1.225 21.45 21.45 0 0 1-4.199.413H21.519c-1.412 0-2.813-.138-4.199-.413s-2.731-.683-4.036-1.225a21.44 21.44 0 0 1-6.981-4.665 21.44 21.44 0 0 1-4.665-6.981 21.41 21.41 0 0 1-1.225-4.036A21.45 21.45 0 0 1 0 21.519zm0 0" fill="#f3f3f5"/><path d="M51.274 16.553v1.301a8.23 8.23 0 0 0-1.433-.54c-.448-.119-.882-.176-1.301-.176-.727 0-1.29.142-1.687.424s-.59.681-.59 1.202c0 .438.129.769.391.992s.758.4 1.494.535l.805.165c.995.192 1.731.526 2.205 1.003s.711 1.119.711 1.924c0 .956-.322 1.681-.964 2.177s-1.579.739-2.817.739c-.467 0-.964-.054-1.494-.16a11.25 11.25 0 0 1-1.637-.468v-1.378c.543.306 1.075.535 1.593.689a5.39 5.39 0 0 0 1.538.231c.763 0 1.352-.149 1.764-.447s.623-.729.623-1.284c0-.485-.149-.863-.447-1.136s-.787-.482-1.466-.623l-.81-.154c-1-.198-1.723-.508-2.166-.932s-.667-1.016-.667-1.77c0-.874.306-1.561.92-2.062s1.466-.755 2.546-.755a8.25 8.25 0 0 1 1.417.127 9.7 9.7 0 0 1 1.472.375zm8.961 5.545v.595H54.64c.051.838.303 1.477.755 1.918s1.086.656 1.891.656a5.35 5.35 0 0 0 1.356-.171 6.25 6.25 0 0 0 1.312-.518v1.152a7.26 7.26 0 0 1-1.345.419c-.458.099-.926.149-1.395.149-1.184 0-2.121-.343-2.811-1.031s-1.031-1.622-1.031-2.795c0-1.212.327-2.175.981-2.888s1.538-1.069 2.651-1.069c.995 0 1.782.322 2.359.964s.871 1.516.871 2.618zm-1.212-.358c-.011-.664-.198-1.196-.562-1.593s-.846-.595-1.444-.595c-.681 0-1.224.192-1.632.573s-.643.923-.706 1.621zm6.579.64c-.985 0-1.669.114-2.05.342s-.568.606-.568 1.147c0 .434.14.777.424 1.031s.675.38 1.169.38c.672 0 1.213-.238 1.621-.716s.612-1.115.612-1.913v-.27zm2.425-.502v4.228h-1.218v-1.124c-.276.449-.622.781-1.036.998s-.923.32-1.521.32c-.761 0-1.366-.212-1.814-.639s-.667-.995-.667-1.709c0-.834.277-1.462.832-1.885s1.392-.639 2.503-.639h1.703v-.116c0-.562-.185-.995-.551-1.301s-.885-.458-1.549-.458c-.427 0-.841.052-1.24.155s-.792.253-1.157.452v-1.124a8.01 8.01 0 0 1 1.295-.386c.419-.088.827-.132 1.224-.132 1.072 0 1.874.28 2.403.838s.794 1.397.794 2.524zm6.8-2.045a1.75 1.75 0 0 0-.452-.171c-.158-.04-.335-.061-.529-.061-.688 0-1.217.225-1.588.672s-.551 1.091-.551 1.929v3.902h-1.224v-7.408h1.224v1.152c.256-.452.59-.786.998-1.003s.911-.331 1.499-.331c.092 0 .184.006.276.017l.336.05zm6.307-.854v1.141c-.346-.19-.692-.332-1.036-.424s-.695-.143-1.047-.143c-.791 0-1.404.251-1.841.75s-.656 1.202-.656 2.106.218 1.608.656 2.111 1.05.75 1.841.75c.354 0 .706-.048 1.047-.143a4.76 4.76 0 0 0 1.036-.43v1.125a4.66 4.66 0 0 1-1.053.358c-.364.08-.752.121-1.163.121-1.118 0-2.005-.35-2.662-1.053s-.981-1.648-.981-2.839c0-1.209.331-2.158.992-2.85s1.574-1.042 2.728-1.042c.375 0 .74.038 1.097.116s.708.193 1.042.347zm8.273 2.657v4.47h-1.218v-4.432c0-.701-.138-1.227-.413-1.577s-.681-.524-1.224-.524c-.659 0-1.178.21-1.56.628s-.568.991-.568 1.714v4.189H83.2V15.809h1.224v4.04c.289-.448.631-.783 1.025-1.003s.854-.331 1.373-.331c.849 0 1.491.265 1.929.794s.656 1.301.656 2.326zm0 0" mask="none" fill="#59595b"/><path fill="#333335" stroke-width=".813" stroke="#333335" d="M27.34 26.521l-3.362-3.712c.186-.198.351-.413.497-.644a4.43 4.43 0 0 0 .371-.721 4.42 4.42 0 0 0 .226-.783 4.33 4.33 0 0 0 .079-.823 4.29 4.29 0 0 0-.083-.843 4.08 4.08 0 0 0-.238-.799c-.107-.256-.238-.502-.393-.732-.156-.237-.333-.457-.531-.66a4.16 4.16 0 0 0-.648-.536c-.23-.156-.474-.287-.73-.391a4.02 4.02 0 0 0-.791-.247c-.273-.055-.551-.084-.835-.084a4.15 4.15 0 0 0-.835.084 4.08 4.08 0 0 0-.791.247 4.05 4.05 0 0 0-.73.391 4.2 4.2 0 0 0-.646.536c-.198.203-.375.423-.531.66a4.06 4.06 0 0 0-.393.732 4.22 4.22 0 0 0-.244.799 4.7 4.7 0 0 0-.077.845c0 .284.026.565.078.843a3.95 3.95 0 0 0 .243.799 4.36 4.36 0 0 0 .393.739c.156.236.332.453.531.655s.413.384.648.542.475.289.73.397a4.4 4.4 0 0 0 .79.241c.277.052.555.079.835.079a4.16 4.16 0 0 0 .719-.062 4.15 4.15 0 0 0 .692-.179 4.02 4.02 0 0 0 .646-.289 4.41 4.41 0 0 0 .598-.409l3.368 3.712a.24.24 0 0 0 .094.067.3.3 0 0 0 .11.022.35.35 0 0 0 .105-.016c.033-.012.063-.03.09-.056.058-.052.088-.119.088-.201s-.021-.145-.072-.201zM17.22 19.84c0-.511.095-.991.287-1.443s.459-.85.791-1.185.726-.601 1.173-.794.923-.296 1.432-.296.987.099 1.433.296a3.76 3.76 0 0 1 1.167.794 3.65 3.65 0 0 1 .79 1.185c.198.46.296.941.294 1.443 0 .514-.098.996-.294 1.448a3.72 3.72 0 0 1-.79 1.185c-.332.335-.721.602-1.167.799a3.55 3.55 0 0 1-1.433.291 3.57 3.57 0 0 1-1.432-.291 3.83 3.83 0 0 1-1.173-.799 3.89 3.89 0 0 1-.791-1.185 3.67 3.67 0 0 1-.287-1.448zm0 0"/></svg>